<?xml version="1.0" encoding="UTF-8"?>
<svg width="24px" height="24px" viewBox="0 0 24 24" version="1.1" xmlns="http://www.w3.org/2000/svg" xmlns:xlink="http://www.w3.org/1999/xlink">
    <title>资金兑换</title>
    <g id="页面-1" stroke="none" stroke-width="1" fill="none" fill-rule="evenodd">
        <g id="首页" transform="translate(-311, -234)" fill="#FFFFFF" fill-rule="nonzero">
            <g id="资金兑换" transform="translate(311, 234)">
                <path d="M19.8943278,6.61967562 C20.3805175,6.35768709 20.9870359,6.53943807 21.2490244,7.0256278 C22.0660774,8.54188801 22.5,10.2407013 22.5,12 C22.5,17.7989847 17.7989847,22.5 12,22.5 C10.2407013,22.5 8.54188801,22.0660774 7.0256278,21.2490244 C6.53943807,20.9870359 6.35768709,20.3805175 6.61967562,19.8943278 C6.88166415,19.4081381 7.48818247,19.2263871 7.9743722,19.4883756 C9.20084597,20.1492741 10.5739429,20.5 12,20.5 C16.6944153,20.5 20.5,16.6944153 20.5,12 C20.5,10.5739429 20.1492741,9.20084597 19.4883756,7.9743722 C19.2263871,7.48818247 19.4081381,6.88166415 19.8943278,6.61967562 Z M12,1.5 C13.7433899,1.5 15.4275679,1.92613425 16.933735,2.72919699 C17.4210755,2.98903867 17.6054997,3.59474949 17.345658,4.08208997 C17.0858163,4.56943046 16.4801055,4.75385468 15.992765,4.49401301 C14.7744689,3.84443818 13.4131721,3.5 12,3.5 C7.30558475,3.5 3.5,7.30558475 3.5,12 C3.5,13.3383966 3.80887101,14.6305294 4.39418919,15.7996107 C4.64144115,16.2934578 4.44153633,16.8942372 3.94768928,17.1414892 C3.45384222,17.3887412 2.85306277,17.1888363 2.60581081,16.6949893 C1.88210092,15.2494922 1.5,13.651009 1.5,12 C1.5,6.20101525 6.20101525,1.5 12,1.5 Z" id="形状"></path>
                <path d="M5.46745,18.8422 C5.4504,19.2267 5.0235,19.4486 4.69902,19.2416 L1.778545,17.3786 C1.45405,17.1716 1.475325,16.69095 1.816845,16.5134 L4.890505,14.9157 C5.232,14.7382 5.63765,14.99695 5.6206,15.3815 L5.46745,18.8422 Z" id="路径"></path>
                <path d="M18.6812,5.20465 C18.7104,4.82087 19.1441,4.612605 19.46185,4.82978 L22.32185,6.7844 C22.63965,7.00155 22.60315,7.4813 22.25615,7.6479 L19.13345,9.14745 C18.78645,9.31405 18.38925,9.0426 18.41845,8.6588 L18.6812,5.20465 Z" id="路径"></path>
            </g>
        </g>
    </g>
</svg>