<?xml version="1.0" encoding="UTF-8"?>
<svg width="24px" height="24px" viewBox="0 0 24 24" version="1.1" xmlns="http://www.w3.org/2000/svg" xmlns:xlink="http://www.w3.org/1999/xlink">
    <title>设置</title>
    <g id="页面-1" stroke="none" stroke-width="1" fill="none" fill-rule="evenodd">
        <g id="首页" transform="translate(-247, -234)" fill="#8C8C8C" fill-rule="nonzero">
            <g id="设置" transform="translate(247, 234)">
                <path d="M12,1.5 C12.4768495,1.5 12.9499794,1.53184924 13.4172799,1.59495568 L14.0806176,1.6845359 L14.2506487,2.33193916 L14.6192007,3.73522158 C14.7032331,4.05518955 15.0692693,4.20680662 15.3549603,4.03997047 L16.7538103,3.22306547 L17.2927834,2.9083142 L17.8123096,3.25422288 C18.7306322,3.86565632 19.548235,4.6185897 20.2334765,5.48324396 L20.6578166,6.01868646 L20.3132786,6.60864981 L19.4322449,8.11727194 C19.2654359,8.40292552 19.417062,8.76896997 19.7370268,8.85300283 L21.5084153,9.31824442 C21.5599584,9.33181248 21.6109126,9.34682685 21.6611462,9.3632264 L22.2296555,9.54882532 L22.3351257,10.1374898 C22.4445573,10.7482643 22.5,11.3707944 22.5,12 C22.5,12.418652 22.4754396,12.8345496 22.4267216,13.2462606 L22.3560723,13.8433121 L21.7956252,14.0609377 C21.7021974,14.0972164 21.606039,14.1283601 21.5078768,14.1540972 L19.7370171,14.6191997 C19.4170566,14.7032314 19.2654263,15.0692915 19.4322242,15.3549427 L20.3557141,16.9362323 C20.4308408,17.0649535 20.4942697,17.1977149 20.545668,17.3337062 L20.7397015,17.8470867 L20.4108359,18.286468 C19.8079134,19.0920033 19.0920033,19.8079134 18.286468,20.4108359 L17.8470867,20.7397015 L17.3337062,20.545668 C17.1977149,20.4942697 17.0649535,20.4308408 16.9359927,20.3555742 L15.355,19.4322577 C15.0692915,19.2654263 14.7032314,19.4170566 14.6191972,19.7370268 L14.1542045,21.5074678 C14.1283601,21.606039 14.0972164,21.7021974 14.0609377,21.7956252 L13.8433121,22.3560723 L13.2462606,22.4267216 C12.8345496,22.4754396 12.418652,22.5 12,22.5 C11.3707944,22.5 10.7482643,22.4445573 10.1374898,22.3351257 L9.54882532,22.2296555 L9.3632264,21.6611462 C9.34682685,21.6109126 9.33181248,21.5599584 9.31810283,21.5078768 L8.85300028,19.7370171 C8.76896997,19.417062 8.40292552,19.2654359 8.11729981,19.4322286 L6.60864981,20.3132786 L6.01868646,20.6578166 L5.48324396,20.2334765 C4.6185897,19.548235 3.86565632,18.7306322 3.25422288,17.8123096 L2.9083142,17.2927834 L3.22306547,16.7538103 L4.03996702,15.3549662 C4.20680662,15.0692693 4.05518955,14.7032331 3.73521416,14.6191987 L2.33193916,14.2506487 L1.6845359,14.0806176 L1.59495568,13.4172799 C1.53184924,12.9499794 1.5,12.4768495 1.5,12 C1.5,11.3141215 1.56590029,10.6361107 1.69573028,9.9727723 L1.81624087,9.35704938 L2.4230621,9.19765836 L3.73522158,8.85299931 C4.05518416,8.76896836 4.20679708,8.40294772 4.03996616,8.11728233 L3.38980116,7.00393233 L3.064136,6.44625958 L3.4384647,5.9200137 C4.12093803,4.96056609 4.96056609,4.12093803 5.9200137,3.4384647 L6.44625958,3.064136 L7.00393233,3.38980116 L8.11730575,4.03997983 C8.40294772,4.20679708 8.76896836,4.05518416 8.85300836,3.7351871 L9.19765836,2.4230621 L9.35704938,1.81624087 L9.9727723,1.69573028 C10.6361107,1.56590029 11.3141215,1.5 12,1.5 Z M12,3.5 C11.7216221,3.5 11.4450921,3.51334907 11.1710375,3.53983482 L10.966,3.5625 L10.7874007,4.24324842 C10.3761727,5.80907113 8.61429835,6.56856515 7.20041653,5.81813302 L7.10871767,5.76704384 L6.5755,5.456 L6.5148367,5.50641981 C6.15128358,5.813864 5.813864,6.15128358 5.50641981,6.5148367 L5.456,6.5755 L5.76703017,7.10869425 C6.58345716,8.50666612 5.8746493,10.289535 4.3442492,10.7586755 L4.2432829,10.7873916 L3.5625,10.966 L3.53983482,11.1710375 C3.52217765,11.3537405 3.51035901,11.5375438 3.50444182,11.7222613 L3.5,12 C3.5,12.0968154 3.50161436,12.1934088 3.50483489,12.2897567 L3.5145,12.4935 L4.24324842,12.6847993 C5.80907342,13.0960279 6.56855225,14.857892 5.81812815,16.2718367 L5.76703953,16.3635397 L5.2775,17.2015 L5.34944195,17.2939722 C5.60228532,17.6111304 5.87749602,17.9100236 6.17277542,18.1882024 L6.215,18.227 L7.10872806,17.7051551 C8.50669834,16.8888024 10.2895377,17.5976155 10.7586808,19.1280074 L10.7873972,19.2289732 L11.1085,20.4525 L11.2389794,20.4664603 C11.4068366,20.4813317 11.5756013,20.4912811 11.7451365,20.4962616 L12,20.5 C12.0850111,20.5 12.1698583,20.4987546 12.2545256,20.4962694 L12.353,20.4915 L12.6848003,19.2289829 C13.0960266,17.6631909 14.8578611,16.9037091 16.2718512,17.65409 L16.3635573,17.7051758 L17.5765,18.4135 L17.7159259,18.2912283 C17.9166961,18.1087011 18.1087011,17.9166961 18.2912283,17.7159259 L18.4135,17.5765 L17.7051423,16.3635 C16.8888154,14.9654924 17.5976139,13.1826625 19.1280073,12.7135192 L19.2289732,12.6848028 L20.4915,12.353 L20.4962694,12.2545256 L20.5,12 C20.5,11.7445929 20.4887674,11.4907652 20.4664603,11.2389794 L20.4525,11.1085 L19.2289829,10.7873997 C17.6631932,10.376174 16.9036962,8.61432924 17.6540851,7.20040211 L17.7051714,7.10870019 L18.227,6.215 L18.1882024,6.17277542 C17.9100236,5.87749602 17.6111304,5.60228532 17.2939722,5.34944195 L17.2015,5.2775 L16.3635338,5.76704298 C14.9655246,6.58344415 13.1826651,5.87465098 12.7135178,4.34422396 L12.6848013,4.24325584 L12.4935,3.5145 L12.2897567,3.50483489 L12,3.5 Z" id="路径"></path>
                <path d="M12,8 C14.209139,8 16,9.790861 16,12 C16,14.209139 14.209139,16 12,16 C9.790861,16 8,14.209139 8,12 C8,9.790861 9.790861,8 12,8 Z M12,10 C10.8954305,10 10,10.8954305 10,12 C10,13.1045695 10.8954305,14 12,14 C13.1045695,14 14,13.1045695 14,12 C14,10.8954305 13.1045695,10 12,10 Z" id="椭圆形"></path>
            </g>
        </g>
    </g>
</svg>