<?xml version="1.0" encoding="UTF-8"?>
<svg width="24px" height="24px" viewBox="0 0 24 24" version="1.1" xmlns="http://www.w3.org/2000/svg" xmlns:xlink="http://www.w3.org/1999/xlink">
    <title>时间</title>
    <g id="页面-1" stroke="none" stroke-width="1" fill="none" fill-rule="evenodd">
        <g id="首页" transform="translate(-279, -234)" fill="#8C8C8C" fill-rule="nonzero">
            <g id="时间" transform="translate(279, 234)">
                <path d="M12,1.5 C17.7989899,1.5 22.5,6.20101013 22.5,12 C22.5,17.7989899 17.7989899,22.5 12,22.5 C6.20101013,22.5 1.5,17.7989899 1.5,12 C1.5,6.20101013 6.20101013,1.5 12,1.5 Z M12,3.5 C7.30557963,3.5 3.5,7.30557963 3.5,12 C3.5,16.6944204 7.30557963,20.5 12,20.5 C16.6944204,20.5 20.5,16.6944204 20.5,12 C20.5,7.30557963 16.6944204,3.5 12,3.5 Z" id="椭圆形"></path>
                <path d="M12,5.5 C12.5522847,5.5 13,5.94771525 13,6.5 L13,11.5855 L15.2071068,13.7928932 C15.5770772,14.1628636 15.5965493,14.7506057 15.2655232,15.1434994 L15.2071068,15.2071068 C14.8165825,15.5976311 14.1834175,15.5976311 13.7928932,15.2071068 L11.2928932,12.7071068 L11,12.4142136 L11,6.5 C11,5.94771525 11.4477153,5.5 12,5.5 Z" id="路径"></path>
            </g>
        </g>
    </g>
</svg>