<?xml version="1.0" encoding="UTF-8"?>
<svg width="24px" height="24px" viewBox="0 0 24 24" version="1.1" xmlns="http://www.w3.org/2000/svg" xmlns:xlink="http://www.w3.org/1999/xlink">
    <title>基金</title>
    <g id="页面-1" stroke="none" stroke-width="1" fill="none" fill-rule="evenodd">
        <g id="首页" transform="translate(-128.000000, -735.000000)" fill-rule="nonzero">
            <g id="基金" transform="translate(128.000000, 735.000000)">
                <rect id="矩形" x="0" y="0" width="24" height="24"></rect>
                <path d="M19,3 L5,3 C3.8954305,3 3,3.8954305 3,5 L3,20 C3,21.1045695 3.8954305,22 5,22 L19,22 C20.1045695,22 21,21.1045695 21,20 L21,5 C21,3.8954305 20.1045695,3 19,3 Z M19,5 L19,20 L5,20 L5,5 L19,5 Z" id="矩形" fill="#80869D"></path>
                <path d="M22,3 C22.5522847,3 23,3.44771525 23,4 C23,4.55228475 22.5522847,5 22,5 L2,5 C1.44771525,5 1,4.55228475 1,4 C1,3.44771525 1.44771525,3 2,3 L22,3 Z" id="路径" fill="#80869D"></path>
                <polygon id="路径" fill="#80869D" points="13 9 18.9142136 9 12 15.9142136 10 13.9145 7.20710678 16.7071068 5.79289322 15.2928932 10 11.0857864 12 13.0855 14.0855 11 13 11"></polygon>
            </g>
        </g>
    </g>
</svg>