<?xml version="1.0" encoding="UTF-8"?>
<svg width="24px" height="24px" viewBox="0 0 24 24" version="1.1" xmlns="http://www.w3.org/2000/svg" xmlns:xlink="http://www.w3.org/1999/xlink">
    <title>我的</title>
    <g id="页面-1" stroke="none" stroke-width="1" fill="none" fill-rule="evenodd">
        <g id="首页" transform="translate(-316.000000, -735.000000)" fill-rule="nonzero">
            <g id="我的" transform="translate(316.000000, 735.000000)">
                <rect id="矩形" x="0" y="0" width="24" height="24"></rect>
                <path d="M16.5,13.5 L7.5,13.5 C4.73856525,13.5 2.5,15.7385653 2.5,18.5 L2.5,19.5 C2.5,20.6045819 3.39542739,21.5 4.5,21.5 L19.5,21.5 C20.6045847,21.5 21.5,20.6045847 21.5,19.5 L21.5,18.5 C21.5,15.7385653 19.2614347,13.5 16.5,13.5 Z M16.5,15.5 C18.1568653,15.5 19.5,16.8431347 19.5,18.5 L19.5,19.5 L4.5,19.5 L4.5,18.5 C4.5,16.8431347 5.84313475,15.5 7.5,15.5 L16.5,15.5 Z" id="路径" fill="#80869D"></path>
                <path d="M12,2.5 C9.23857625,2.5 7,4.73857625 7,7.5 C7,10.2614237 9.23857625,12.5 12,12.5 C14.7614237,12.5 17,10.2614237 17,7.5 C17,4.73857625 14.7614237,2.5 12,2.5 Z M12,4.5 C13.6568542,4.5 15,5.84314575 15,7.5 C15,9.15685425 13.6568542,10.5 12,10.5 C10.3431458,10.5 9,9.15685425 9,7.5 C9,5.84314575 10.3431458,4.5 12,4.5 Z" id="椭圆形" fill="#80869D"></path>
            </g>
        </g>
    </g>
</svg>