<?xml version="1.0" encoding="UTF-8"?>
<svg width="24px" height="24px" viewBox="0 0 24 24" version="1.1" xmlns="http://www.w3.org/2000/svg" xmlns:xlink="http://www.w3.org/1999/xlink">
    <title>行情</title>
    <g id="页面-1" stroke="none" stroke-width="1" fill="none" fill-rule="evenodd">
        <g id="首页" transform="translate(-33.000000, -735.000000)" fill-rule="nonzero">
            <g id="行情" transform="translate(33.000002, 735.000000)">
                <rect id="矩形" x="0" y="0" width="24" height="24"></rect>
                <path d="M20.5,3 L3.5,3 C2.3954305,3 1.5,3.8954305 1.5,5 L1.5,19 C1.5,20.1045695 2.3954305,21 3.5,21 L20.5,21 C21.6045695,21 22.5,20.1045695 22.5,19 L22.5,5 C22.5,3.8954305 21.6045695,3 20.5,3 Z" id="矩形" fill="#FF4902"></path>
                <path d="M6,13.5 C6.55228475,13.5 7,13.9477153 7,14.5 L7,16.5 C7,17.0522847 6.55228475,17.5 6,17.5 C5.44771525,17.5 5,17.0522847 5,16.5 L5,14.5 C5,13.9477153 5.44771525,13.5 6,13.5 Z" id="路径" fill="#FFFFFF"></path>
                <path d="M14,13.5 C14.5522847,13.5 15,13.9477153 15,14.5 L15,16.5 C15,17.0522847 14.5522847,17.5 14,17.5 C13.4477153,17.5 13,17.0522847 13,16.5 L13,14.5 C13,13.9477153 13.4477153,13.5 14,13.5 Z" id="路径" fill="#FFFFFF"></path>
                <path d="M10,12 C10.5522847,12 11,12.4477153 11,13 L11,16.5 C11,17.0522847 10.5522847,17.5 10,17.5 C9.44771525,17.5 9,17.0522847 9,16.5 L9,13 C9,12.4477153 9.44771525,12 10,12 Z" id="路径" fill="#FFFFFF"></path>
                <path d="M18,12 C18.5522847,12 19,12.4477153 19,13 L19,16.5 C19,17.0522847 18.5522847,17.5 18,17.5 C17.4477153,17.5 17,17.0522847 17,16.5 L17,13 C17,12.4477153 17.4477153,12 18,12 Z" id="路径" fill="#FFFFFF"></path>
                <path d="M17.2928932,6.79289322 C17.6834175,6.40236893 18.3165825,6.40236893 18.7071068,6.79289322 C19.0976311,7.18341751 19.0976311,7.81658249 18.7071068,8.20710678 L15.3203568,11.5938568 C14.6166017,12.2976119 13.5024153,12.376774 12.7061524,11.7796018 L10.000018,9.7500135 L6.6,12.3 C6.1581722,12.6313708 5.53137085,12.5418278 5.2,12.1 C4.86862915,11.6581722 4.9581722,11.0313708 5.4,10.7 L8.800018,8.1499865 C9.51111622,7.61668783 10.4888838,7.61668783 11.1999976,8.14999823 L13.9061339,10.1795879 L17.2928932,6.79289322 Z" id="路径" fill="#FFFFFF"></path>
            </g>
        </g>
    </g>
</svg>