<?xml version="1.0" encoding="UTF-8"?>
<svg width="24px" height="24px" viewBox="0 0 24 24" version="1.1" xmlns="http://www.w3.org/2000/svg" xmlns:xlink="http://www.w3.org/1999/xlink">
    <title>借贷</title>
    <g id="页面-1" stroke="none" stroke-width="1" fill="none" fill-rule="evenodd">
        <g id="首页" transform="translate(-221.000000, -735.000000)" fill-rule="nonzero">
            <g id="借贷" transform="translate(221.000002, 735.000000)">
                <rect id="矩形" x="0" y="0" width="24" height="24"></rect>
                <path d="M12,1.5 C6.20101013,1.5 1.5,6.20101013 1.5,12 C1.5,17.7989899 6.20101013,22.5 12,22.5 C17.7989899,22.5 22.5,17.7989899 22.5,12 C22.5,6.20101013 17.7989899,1.5 12,1.5 Z M12,3.5 C16.6944204,3.5 20.5,7.30557963 20.5,12 C20.5,16.6944204 16.6944204,20.5 12,20.5 C7.30557963,20.5 3.5,16.6944204 3.5,12 C3.5,7.30557963 7.30557963,3.5 12,3.5 Z" id="椭圆形" fill="#80869D"></path>
                <path d="M14.2426407,8.24265 L10.2426407,8.24265 C9.13807119,8.24265 8.24264069,9.1380805 8.24264069,10.24265 L8.24264069,14.24265 C8.24264069,15.3472195 9.13807119,16.24265 10.2426407,16.24265 L14.2426407,16.24265 C15.3472102,16.24265 16.2426407,15.3472195 16.2426407,14.24265 L16.2426407,10.24265 C16.2426407,9.1380805 15.3472102,8.24265 14.2426407,8.24265 Z M10.2426407,14.24265 L10.2426407,10.24265 L14.2426407,10.24265 L14.2426407,14.24265 L10.2426407,14.24265 Z" id="矩形" fill="#80869D" transform="translate(12.242641, 12.242650) rotate(-45.000000) translate(-12.242641, -12.242650) "></path>
            </g>
        </g>
    </g>
</svg>